#N canvas -8 0 1920 1026 12;
#X obj 43 135 adc~;
#N canvas 0 50 450 250 (subpatch) 0;
#X array oscilloscope 500 float 3;
#A 0 0 0 0 0 0 0 0 0 0 0 0 0 0 0 0 0 0 0 0 0 0 0 0 0 0 0 0 0 0 0 0 0 0 0 0 0 0 0 0 0 0 0 0 0 0 0 0 0 0 0 0 0 0 0 0 0 0 0 0 0 0 0 0 0 0 0 0 0 0 0 0 0 0 0 0 0 0 0 0 0 0 0 0 0 0 0 0 0 0 0 0 0 0 0 0 0 0 0 0 0 0 0 0 0 0 0 0 0 0 0 0 0 0 0 0 0 0 0 0 0 0 0 0 0 0 0 0 0 0 0 0 0 0 0 0 0 0 0 0 0 0 0 0 0 0 0 0 0 0 0 0 0 0 0 0 0 0 0 0 0 0 0 0 0 0 0 0 0 0 0 0 0 0 0 0 0 0 0 0 0 0 0 0 0 0 0 0 0 0 0 0 0 0 0 0 0 0 0 0 0 0 0 0 0 0 0 0 0 0 0 0 0 0 0 0 0 0 0 0 0 0 0 0 0 0 0 0 0 0 0 0 0 0 0 0 0 0 0 0 0 0 0 0 0 0 0 0 0 0 0 0 0 0 0 0 0 0 0 0 0 0 0 0 0 0 0 0 0 0 0 0 0 0 0 0 0 0 0 0 0 0 0 0 0 0 0 0 0 0 0 0 0 0 0 0 0 0 0 0 0 0 0 0 0 0 0 0 0 0 0 0 0 0 0 0 0 0 0 0 0 0 0 0 0 0 0 0 0 0 0 0 0 0 0 0 0 0 0 0 0 0 0 0 0 0 0 0 0 0 0 0 0 0 0 0 0 0 0 0 0 0 0 0 0 0 0 0 0 0 0 0 0 0 0 0 0 0 0 0 0 0 0 0 0 0 0 0 0 0 0 0 0 0 0 0 0 0 0 0 0 0 0 0 0 0 0 0 0 0 0 0 0 0 0 0 0 0 0 0 0 0 0 0 0 0 0 0 0 0 0 0 0 0 0 0 0 0 0 0 0 0 0 0 0 0 0 0 0 0 0 0 0 0 0 0 0 0 0 0 0 0 0 0 0 0 0 0 0 0 0 0 0 0 0 0 0 0 0 0 0 0 0 0 0 0 0 0 0 0 0 0 0 0 0 0 0 0 0 0 0;
#X coords 0 1 499 -1 883 344 1;
#X restore 1006 61 graph;
#X obj 580 115 bng 19 250 50 0 empty empty empty 0 -10 0 12 #fcfcfc #000000 #000000;
#X obj 584 220 tabwrite~ oscilloscope;
#X obj 817 179 dac~;
#X obj 80 37 vsl 19 50 0 100 0 0 empty empty empty 0 -9 0 12 #fcfcfc #000000 #000000 0 1;
#X floatatom 89 117 5 0 0 0 - - - 0;
#X obj 51 183 *~ 1;
#X obj 1619 909 netsend;
#X msg 1661 862 disconnect;
#X floatatom 1619 937 5 0 0 0 - - - 0;
#X msg 1661 838 connect 127.0.0.1 10000;
#X obj 1577 672 tgl 19 0 empty empty empty 0 -10 0 12 #fcfcfc #000000 #000000 0 1;
#X obj 1616 534 vsl 20 100 40 300 0 0 empty empty empty 0 -9 0 12 #fcfcfc #000000 #000000 0 1;
#X floatatom 1627 662 5 0 0 0 - - - 0;
#X msg 1616 693 tempo \$1 permin;
#X obj 1616 723 metro 1 120 permin;
#X msg 608 115 stop;
#X obj 747 65 catch~ left;
#X obj 756 163 env~;
#X obj 756 190 - 100;
#X obj 879 163 env~;
#X obj 879 190 - 100;
#X obj 890 63 catch~ right;
#X obj 756 223 vu 19 200 empty empty -1 -10 0 12 #404040 #000000 1 0;
#X obj 880 228 vu 19 200 empty empty -1 -10 0 12 #404040 #000000 1 0;
#X obj 68 590 throw~ left;
#X obj 161 591 throw~ right;
#X floatatom 298 260 5 0 0 0 - - - 0;
#X floatatom 372 259 5 0 0 0 - - - 0;
#X obj 298 283 mtof;
#X floatatom 298 307 5 0 0 0 - - - 0;
#X obj 298 330 osc~;
#X obj 298 354 *~;
#X obj 898 97 clip~ -1 1;
#X obj 374 289 / 127;
#X floatatom 374 315 5 0 0 0 - - - 0;
#X obj 454 323 tgl 19 0 empty empty empty 0 -10 0 12 #fcfcfc #000000 #000000 0 1;
#X obj 464 281 > 90;
#X obj 458 395 change;
#X obj 475 432 bng 19 250 50 0 empty empty empty 0 -10 0 12 #fcfcfc #000000 #000000;
#X obj 250 407 s trigger;
#X obj 509 434 r trigger;
#X floatatom 491 505 5 0 0 0 - - - 0;
#X obj 475 463 float;
#X msg 1551 842 send \$1 pitch;
#X obj 99 287 mtof;
#X obj 100 247 hsl 162 19 0 500 0 0 empty empty empty -2 -10 0 12 #fcfcfc #000000 #000000 0 1;
#X obj 67 333 lop~;
#X obj 763 99 clip~ -1 1;
#X floatatom 164 289 5 0 0 0 - - - 0;
#X obj 580 154 metro 75;
#X obj 486 151 vsl 19 50 90 120 0 0 empty empty empty 0 -9 0 12 #fcfcfc #000000 #000000 0 1;
#X floatatom 489 227 5 0 0 0 - - - 0;
#X msg 733 576 stop;
#X obj 708 530 writesf~ 2;
#X msg 756 476 open test_record \, start;
#X obj 68 442 lop~ 300;
#X obj 67 366 hip~ 88;
#X obj 67 403 hip~ 88;
#X obj 267 188 sigmund~ -hop 4096 pitch env;
#X obj 464 305;
#X obj 535 324 pack;
#X obj 577 289 loadbang;
#X obj 588 345 metro 200;
#X obj 559 389 list store;
#X obj 495 600 print hello_world;
#X obj 664 378 bng 19 250 50 0 empty empty empty 0 -10 0 12 #fcfcfc #000000 #000000;
#X obj 592 424 print \$1;
#X connect 0 0 7 0;
#X connect 2 0 51 0;
#X connect 5 0 6 0;
#X connect 6 0 7 1;
#X connect 7 0 48 0;
#X connect 7 0 60 0;
#X connect 8 0 10 0;
#X connect 9 0 8 0;
#X connect 11 0 8 0;
#X connect 12 0 16 0;
#X connect 13 0 14 0;
#X connect 13 0 15 0;
#X connect 15 0 16 0;
#X connect 16 0 45 0;
#X connect 17 0 51 0;
#X connect 18 0 49 0;
#X connect 19 0 20 0;
#X connect 20 0 24 0;
#X connect 21 0 22 0;
#X connect 22 0 25 0;
#X connect 23 0 34 0;
#X connect 28 0 30 0;
#X connect 28 0 41 0;
#X connect 29 0 35 0;
#X connect 29 0 38 0;
#X connect 30 0 31 0;
#X connect 30 0 62 0;
#X connect 31 0 32 0;
#X connect 32 0 33 0;
#X connect 34 0 21 0;
#X connect 34 0 4 1;
#X connect 35 0 36 0;
#X connect 36 0 33 1;
#X connect 37 0 39 0;
#X connect 38 0 37 0;
#X connect 38 0 61 0;
#X connect 39 0 40 0;
#X connect 40 0 44 0;
#X connect 42 0 44 1;
#X connect 43 0 45 0;
#X connect 44 0 43 0;
#X connect 45 0 8 0;
#X connect 46 0 48 1;
#X connect 47 0 46 0;
#X connect 47 0 50 0;
#X connect 48 0 58 0;
#X connect 49 0 19 0;
#X connect 49 0 4 0;
#X connect 49 0 3 0;
#X connect 49 0 55 0;
#X connect 50 0 46 0;
#X connect 51 0 3 0;
#X connect 52 0 53 0;
#X connect 53 0 38 1;
#X connect 54 0 55 0;
#X connect 56 0 55 0;
#X connect 57 0 26 0;
#X connect 57 0 27 0;
#X connect 58 0 59 0;
#X connect 59 0 57 0;
#X connect 60 0 28 0;
#X connect 60 1 29 0;
#X connect 60 1 62 1;
#X connect 62 0 65 1;
#X connect 63 0 64 0;
#X connect 64 0 65 0;
#X connect 65 0 68 0;
#X connect 67 0 66 0;
#X connect 67 0 68 0;
